<svg width="60" height="66" viewBox="0 0 60 66" fill="none" xmlns="http://www.w3.org/2000/svg">
<rect width="60" height="60" rx="30" fill="#FFAE7B"/>
<path fill-rule="evenodd" clip-rule="evenodd" d="M22.0408 58.7755L27.6561 64.3908C28.6125 65.3471 30.1631 65.3471 31.1194 64.3908L36.7347 58.7755L22.0408 58.7755Z" fill="#FFAE7B"/>
<path d="M29.3878 18.3673C36.1506 18.3673 41.6327 23.8494 41.6327 30.6122C41.6327 37.3751 36.1506 42.8571 29.3878 42.8571C22.6249 42.8571 17.1429 37.3751 17.1429 30.6122C17.1429 23.8494 22.6249 18.3673 29.3878 18.3673ZM29.3878 20.8163C26.7897 20.8163 24.2981 21.8484 22.461 23.6855C20.6239 25.5226 19.5918 28.0142 19.5918 30.6122C19.5918 33.2103 20.6239 35.7019 22.461 37.539C24.2981 39.3761 26.7897 40.4082 29.3878 40.4082C31.9858 40.4082 34.4774 39.3761 36.3145 37.539C38.1516 35.7019 39.1837 33.2103 39.1837 30.6122C39.1837 28.0142 38.1516 25.5226 36.3145 23.6855C34.4774 21.8484 31.9858 20.8163 29.3878 20.8163ZM29.3878 34.2857C29.7125 34.2857 30.024 34.4147 30.2536 34.6444C30.4832 34.874 30.6122 35.1854 30.6122 35.5102C30.6122 35.835 30.4832 36.1464 30.2536 36.376C30.024 36.6057 29.7125 36.7347 29.3878 36.7347C29.063 36.7347 28.7515 36.6057 28.5219 36.376C28.2923 36.1464 28.1633 35.835 28.1633 35.5102C28.1633 35.1854 28.2923 34.874 28.5219 34.6444C28.7515 34.4147 29.063 34.2857 29.3878 34.2857ZM29.3878 23.2653C29.7125 23.2653 30.024 23.3943 30.2536 23.6239C30.4832 23.8536 30.6122 24.165 30.6122 24.4898V31.8367C30.6122 32.1615 30.4832 32.4729 30.2536 32.7026C30.024 32.9322 29.7125 33.0612 29.3878 33.0612C29.063 33.0612 28.7515 32.9322 28.5219 32.7026C28.2923 32.4729 28.1633 32.1615 28.1633 31.8367V24.4898C28.1633 24.165 28.2923 23.8536 28.5219 23.6239C28.7515 23.3943 29.063 23.2653 29.3878 23.2653Z" fill="white"/>
</svg>
