<svg width="60" height="66" viewBox="0 0 60 66" fill="none" xmlns="http://www.w3.org/2000/svg">
<rect width="60" height="60" rx="30" fill="#69DFB2"/>
<path fill-rule="evenodd" clip-rule="evenodd" d="M22.0408 58.7755L27.6561 64.3908C28.6125 65.3471 30.1631 65.3471 31.1194 64.3908L36.7347 58.7755L22.0408 58.7755Z" fill="#69DFB2"/>
<path d="M23.1521 43H19.5328C19.1129 43 18.6904 42.9402 18.3043 42.7751C17.0485 42.2356 16.4102 41.5219 16.1138 41.076C16.0333 40.9525 15.9938 40.8068 16.0008 40.6596C16.0078 40.5123 16.061 40.371 16.1528 40.2557C17.6088 38.3213 20.9837 37.1539 23.1521 37.1539M23.1586 43H26.7766C27.1978 43 27.619 42.9402 28.0052 42.7751C29.2623 42.2356 29.8993 41.5219 30.197 41.076C30.2775 40.9525 30.317 40.8068 30.31 40.6596C30.303 40.5123 30.2498 40.371 30.158 40.2557C28.702 38.3213 25.3271 37.1539 23.1586 37.1539M42 23.2296C42 26.6694 39.0879 29.4592 35.4946 29.4592C35.0717 29.4592 34.6522 29.4202 34.2362 29.3422C33.9372 29.2863 33.789 29.259 33.6837 29.2746C33.5797 29.2902 33.4315 29.3682 33.1377 29.5268C32.2961 29.9754 31.3275 30.1262 30.3894 29.9545C30.7456 29.5151 30.9874 28.9886 31.0953 28.4244C31.1603 28.0799 30.9991 27.7445 30.7573 27.4988C29.6283 26.3644 28.9928 24.8301 28.9893 23.2296C28.9893 19.7898 31.9014 17 35.4946 17C39.0879 17 42 19.7898 42 23.2296ZM26.7701 30.3757C26.7687 31.3324 26.3876 32.2493 25.7103 32.9251C25.0331 33.6008 24.1153 33.98 23.1586 33.9793C22.6847 33.98 22.2153 33.8873 21.7772 33.7066C21.3391 33.5259 20.9408 33.2606 20.6052 32.926C20.2696 32.5914 20.0032 32.1939 19.8212 31.7563C19.6392 31.3188 19.5452 30.8496 19.5445 30.3757C19.5451 29.9017 19.639 29.4324 19.8209 28.9947C20.0028 28.5569 20.2692 28.1593 20.6048 27.8246C20.9404 27.4898 21.3387 27.2244 21.7769 27.0436C22.2151 26.8628 22.6846 26.7701 23.1586 26.7708C24.1155 26.7701 25.0336 27.1495 25.7108 27.8255C26.3881 28.5015 26.7691 29.4188 26.7701 30.3757Z" stroke="white" stroke-width="1.5" stroke-linecap="round" stroke-linejoin="round"/>

</svg>


