<svg xmlns="http://www.w3.org/2000/svg" xmlns:xlink="http://www.w3.org/1999/xlink" width="549.61" height="548.79" viewBox="0 0 549.61 548.79">
  <defs>
    <linearGradient id="linear-gradient" x1="0.5" x2="0.5" y2="1" gradientUnits="objectBoundingBox">
      <stop offset="0" stop-color="#7ada9d"/>
      <stop offset="1" stop-color="#3d6d4f"/>
    </linearGradient>
  </defs>
  <g id="Group_351143" data-name="Group 351143" transform="translate(-241.694 -254.355)">
    <path id="Path_548650" data-name="Path 548650" d="M2219.076,1354.977l10.774-23.312c14.785-35.116,35.874-83.795,81.509-58.276q26.194-1.017,26.509,22.561c-9.125-15.583-40.832-7.129-34.924,7.713,4.788,12.037,9.049,24.04,13.981,35.565-19.783,10.2-39.091,20.036-58.954,29.69l-32.023,86.453-129.186-23.06-27.828-53.566,122.433,16-161.4-75.833-32.694-77.926Zm327.812-113.993-274.806,141.234-28.38,76.324-23.11,62.121,51.49,59.835,51.49-59.835-23.106-62.121,146.94-26.23,27.828-53.567-122.46,16,161.422-75.833Z" transform="translate(-1755.583 -986.629)" fill="url(#linear-gradient)"/>
    <path id="Union_1637" data-name="Union 1637" d="M338.565,182.106v-48.28h4.01v8.12a16.5,16.5,0,0,1,6.2-6.554,18.087,18.087,0,0,1,21.782,2.864,19.414,19.414,0,0,1,0,26.313,17.167,17.167,0,0,1-12.82,5.273,16.916,16.916,0,0,1-15.161-9v21.259Zm8.154-41.087a14.937,14.937,0,1,0,10.343-4.161A14.133,14.133,0,0,0,346.719,141.019Zm-53.873,41.087v-48.28h4.009v8.12a16.5,16.5,0,0,1,6.2-6.554,18.087,18.087,0,0,1,21.782,2.864,19.416,19.416,0,0,1,0,26.313,17.167,17.167,0,0,1-12.82,5.273,16.916,16.916,0,0,1-15.161-9v21.259ZM301,141.019a14.937,14.937,0,1,0,10.344-4.161A14.135,14.135,0,0,0,301,141.019Zm-89.956,41.087V160.847a16.751,16.751,0,0,1-6.2,6.586,17.983,17.983,0,0,1-21.73-2.881,19.417,19.417,0,0,1,0-26.279,18.028,18.028,0,0,1,21.73-2.9,16.629,16.629,0,0,1,6.2,6.57v-8.12h4.01v48.28Zm-24.78-41.087a15.15,15.15,0,0,0,0,20.787,14.872,14.872,0,0,0,20.636,0,14.555,14.555,0,0,0-10.344-24.948A13.909,13.909,0,0,0,186.263,141.019Zm-45.652,23.517a18.476,18.476,0,0,1,25.976-26.28,17.914,17.914,0,0,1,5.239,13.157,14.582,14.582,0,0,1-.135,1.718h-32.31a14,14,0,0,0,4.8,9.349,14.976,14.976,0,0,0,10.192,3.622,16.366,16.366,0,0,0,7.715-1.836,14.133,14.133,0,0,0,5.458-4.868l2.83,2.358a17.8,17.8,0,0,1-6.806,5.93,20.38,20.38,0,0,1-9.365,2.156A18.694,18.694,0,0,1,140.611,164.536Zm3.318-24.242a14.215,14.215,0,0,0-4.549,9.231h28.234a14.153,14.153,0,0,0-4.583-9.231,14.558,14.558,0,0,0-19.1,0ZM94.64,164.552a19.417,19.417,0,0,1,0-26.279,18.028,18.028,0,0,1,21.73-2.9,16.63,16.63,0,0,1,6.2,6.57V119.3h4.009V169h-4.009v-8.153a16.751,16.751,0,0,1-6.2,6.586,17.983,17.983,0,0,1-21.73-2.881Zm3.15-23.533a15.15,15.15,0,0,0,0,20.787,14.872,14.872,0,0,0,20.636,0,14.555,14.555,0,0,0-10.344-24.948A13.909,13.909,0,0,0,97.79,141.019ZM48.92,164.552a19.417,19.417,0,0,1,0-26.279,17.048,17.048,0,0,1,12.769-5.289,17.042,17.042,0,0,1,8.962,2.392,16.63,16.63,0,0,1,6.2,6.57v-8.12H80.86V169H76.85v-8.153a16.751,16.751,0,0,1-6.2,6.586,16.955,16.955,0,0,1-8.962,2.409A17.045,17.045,0,0,1,48.92,164.552Zm3.151-23.533a15.15,15.15,0,0,0,0,20.787,13.906,13.906,0,0,0,10.292,4.162,14.556,14.556,0,1,0,0-29.11A13.909,13.909,0,0,0,52.07,141.019Zm-41.255,26.8A22.483,22.483,0,0,1,2.831,162.3l2.358-3.167a20.345,20.345,0,0,0,6.856,4.937,20.855,20.855,0,0,0,8.777,1.9,15.5,15.5,0,0,0,9.113-2.561,7.758,7.758,0,0,0,3.656-6.6,6.74,6.74,0,0,0-.556-2.746,8.519,8.519,0,0,0-1.347-2.173,8.772,8.772,0,0,0-2.106-1.7,22.95,22.95,0,0,0-2.359-1.263,20.915,20.915,0,0,0-2.644-.944q-1.6-.471-2.409-.657t-2.156-.454a40.641,40.641,0,0,1-4.464-1.2,27.786,27.786,0,0,1-4.228-1.836,17.518,17.518,0,0,1-3.672-2.543,10.985,10.985,0,0,1-2.477-3.437,10.345,10.345,0,0,1-.96-4.464,11.2,11.2,0,0,1,4.583-9.282q4.582-3.555,11.69-3.555a22.714,22.714,0,0,1,8.743,1.634,17.148,17.148,0,0,1,6.452,4.464l-2.224,3.1a13.723,13.723,0,0,0-5.374-3.807,19,19,0,0,0-7.6-1.517,14.089,14.089,0,0,0-8.54,2.477,7.5,7.5,0,0,0-3.387,6.283q0,7.042,12.635,9.535,1.111.235,2.122.488t2.527.691a19.8,19.8,0,0,1,2.8,1.028q1.28.589,2.746,1.364a12.166,12.166,0,0,1,2.594,1.819,18.772,18.772,0,0,1,2.072,2.257,8.9,8.9,0,0,1,1.449,2.813,11.507,11.507,0,0,1-1.769,10.242,14.831,14.831,0,0,1-6.2,4.734,21.86,21.86,0,0,1-8.709,1.685A25.453,25.453,0,0,1,10.815,167.821ZM280.751,169l-5.424-13.039h-25L244.9,169h-4.649l20.08-47.606h5.122L285.535,169Zm-28.772-16.98h21.765l-10.916-26.077Zm-51.9-58.135a25.843,25.843,0,0,1-6.771-.915c-6.039-1.525-9.028-6.161-9.028-14.03V72.656c0-9.028,4.88-13.542,13.969-13.542h1.586l-1.4,8.6c-3.6,0-5.429,1.83-5.429,5.551v5.978c0,3.843,1.768,5.8,5.307,5.8h20.922c4.209,0,5.307-2.318,5.307-6.1h-8.174c-7.93-.427-12.2-5.734-12.139-12.139l.061-7.869c.365-6.344,4.819-12.2,13.664-12.2,11.224,0,15.372,5.246,15.372,14.64v8.784H244.61q5.307,0,5.307-5.124V53.624l8.479-5.062V64.238a21.782,21.782,0,0,1-.733,5.917H269.8q5.307,0,5.307-5.124V53.624l8.479-5.062V64.238a21.819,21.819,0,0,1-.732,5.917H295.3a4.894,4.894,0,0,0,4.88-4.88V40.509l8.54-5V57.772l8.968-8.113A16.256,16.256,0,0,1,328.3,45.633a16.636,16.636,0,0,1,16.592,16.9v7.625h9.272q5.307,0,5.306-5.124V53.624l8.48-5.062V64.238c0,9.821-4.637,14.762-13.97,14.762H233.325c0,9.882-3.172,14.884-12.261,14.884ZM318.847,59.968l-9.211,8.3v1.891h26.657V63.323c0-4.88-3.722-8.6-7.808-8.6C324.7,54.722,321.592,57.467,318.847,59.968Zm-106.2,1.342v3.111c0,3.843,1.708,5.734,5.063,5.734h6.832V61.371c0-4.392-2.074-5.429-6.588-5.429C214.415,55.942,212.646,57.711,212.646,61.31ZM19.581,93.884a25.85,25.85,0,0,1-6.772-.915c-6.039-1.525-9.028-6.161-9.028-14.03V72.656c0-9.028,4.88-13.542,13.969-13.542h1.587l-1.4,8.6c-3.6,0-5.43,1.83-5.43,5.551v5.978c0,3.843,1.769,5.8,5.307,5.8H38.735c4.209,0,5.307-2.318,5.307-6.1H35.868c-7.93-.427-12.2-5.734-12.138-12.139l.06-7.869c.366-6.344,4.819-12.2,13.665-12.2,11.224,0,15.372,5.246,15.372,14.64v8.784h12.2q5.307,0,5.307-5.124V53.624l8.479-5.062V64.238C78.812,74.059,74.176,79,64.843,79H52.826c0,9.882-3.173,14.884-12.262,14.884ZM32.147,61.31v3.111c0,3.843,1.708,5.734,5.063,5.734h6.833V61.371c0-4.392-2.075-5.429-6.588-5.429C33.916,55.942,32.147,57.711,32.147,61.31Zm240.584,29.1V82.9h7.626v7.5Zm-20.068,0V82.9h7.625v7.5Zm-10.248,0V82.9h7.625v7.5Zm-173.24,0V82.9H76.8v7.5Zm-10.248,0V82.9h7.626v7.5ZM116.327,79H86.254l1.769-8.845h16.41V63.14a8.535,8.535,0,0,0-8.114-8.724c-1.83,0-3.111.61-5.551,1.769L87.23,47.829a20.208,20.208,0,0,1,8.906-2.561c10.614,0,16.958,8.479,16.958,17.079v7.808H124.5v-16.1l8.54-5v8.723l8.968-8.113a16.375,16.375,0,0,1,10.614-4.027c9.577,0,16.226,7.808,16.592,16.9V79Zm26.84-19.032-9.211,8.3v1.891h26.657V63.323c0-4.88-3.721-8.6-7.808-8.6C149.023,54.722,145.912,57.467,143.167,59.968ZM365.024,44.9V37.4h7.625v7.5Zm-10.247,0V37.4H362.4v7.5ZM219.234,43.254v-7.5h7.626v7.5Zm-10.247,0v-7.5h7.625v7.5Zm-170.251,0v-7.5H46.36v7.5Zm-10.248,0v-7.5h7.625v7.5Z" transform="translate(327.17 620.539)" fill="#aae6c0" stroke="rgba(0,0,0,0)" stroke-miterlimit="10" stroke-width="1"/>
  </g>
</svg>
