<svg width="550" height="549" viewBox="0 0 550 549" fill="none" xmlns="http://www.w3.org/2000/svg">
<g clip-path="url(#clip0_120_11)">
<path d="M221.799 113.993L232.573 90.681C247.358 55.565 268.447 6.88603 314.082 32.405C331.544 31.727 340.381 39.2473 340.591 54.9659C331.466 39.3829 299.759 47.837 305.667 62.679C310.455 74.716 314.716 86.719 319.648 98.244C299.865 108.444 280.557 118.28 260.694 127.934L228.671 214.387L99.4849 191.327L71.657 137.761L194.09 153.761L32.6899 77.928L-0.00415039 0.00195312L221.799 113.993ZM549.611 0L274.805 141.234L246.425 217.558L223.315 279.679L274.805 339.514L326.295 279.679L303.189 217.558L450.129 191.328L477.957 137.761L355.497 153.761L516.919 77.928L549.611 0Z" fill="url(#paint0_linear_120_11)"/>
<path d="M206.057 460.068C203.769 460.064 201.492 459.756 199.285 459.153C193.246 457.628 190.257 452.992 190.257 445.123V438.84C190.257 429.812 195.137 425.298 204.226 425.298H205.813L204.413 433.898C200.813 433.898 198.983 435.728 198.983 439.449V445.427C198.983 449.27 200.752 451.227 204.29 451.227H225.211C229.42 451.227 230.518 448.909 230.518 445.127H222.344C214.414 444.7 210.144 439.393 210.206 432.988L210.266 425.119C210.632 418.775 215.085 412.919 223.931 412.919C235.155 412.919 239.303 418.165 239.303 427.559V436.343H251.503C255.041 436.343 256.81 434.635 256.81 431.219V419.808L265.289 414.746V430.422C265.288 440.243 260.652 445.184 251.319 445.184H239.302C239.302 455.066 236.129 460.068 227.04 460.068H206.057ZM218.623 427.494V430.605C218.623 434.448 220.331 436.339 223.686 436.339H230.519V427.555C230.519 423.163 228.444 422.126 223.931 422.126C220.392 422.126 218.623 423.895 218.623 427.494ZM255.651 456.594V449.084H263.276V456.584L255.651 456.594ZM245.403 456.594V449.084H253.029V456.584L245.403 456.594ZM302.803 445.184H272.73L274.499 436.339H290.909V429.324C290.961 427.099 290.142 424.942 288.626 423.312C287.11 421.682 285.018 420.709 282.795 420.6C280.965 420.6 279.684 421.21 277.244 422.369L273.706 414.013C276.436 412.481 279.485 411.604 282.612 411.452C293.226 411.452 299.57 419.931 299.57 428.531V436.339H310.976V420.239L319.516 415.239V423.962L328.484 415.849C331.428 413.284 335.193 411.856 339.098 411.822C348.675 411.822 355.324 419.63 355.69 428.722V445.184H302.803ZM329.643 426.152L320.432 434.452V436.343H347.089V429.507C347.089 424.627 343.368 420.907 339.281 420.907C335.499 420.906 332.388 423.651 329.643 426.152ZM225.212 409.438V401.938H232.836V409.438H225.212ZM214.964 409.438V401.938H222.589V409.438H214.964Z" fill="#AAE6C0"/>
</g>
<defs>
<linearGradient id="paint0_linear_120_11" x1="274.803" y1="0" x2="274.803" y2="339.514" gradientUnits="userSpaceOnUse">
<stop stop-color="#7ADA9D"/>
<stop offset="1" stop-color="#3D6D4F"/>
</linearGradient>
<clipPath id="clip0_120_11">
<rect width="549.61" height="548.79" fill="white"/>
</clipPath>
</defs>
</svg>
