<svg width="753" height="239" viewBox="0 0 753 239" fill="none" xmlns="http://www.w3.org/2000/svg">
<path d="M696.53 96.679C695.78 97.408 695 98.136 694.2 98.817L731.42 154.429L717.28 152.549C712.69 151.938 708.65 149.213 706.37 145.219L684.17 106.43C683.28 106.994 682.41 107.557 681.49 108.074L717.11 172.919L702.94 170.053C698.32 169.113 694.39 166.035 692.39 161.735L670.17 113.642C669.21 114.042 668.22 114.418 667.21 114.77L690.49 167.539L679.68 165.354C674.59 164.32 670.4 160.725 668.64 155.815L655.06 118.106C654.03 118.318 652.99 118.482 651.96 118.67L666.97 162.816L658.89 161.195C653.35 160.067 648.93 155.909 647.47 150.435L639.74 121.161C638.76 121.443 637.77 121.725 636.78 122.053L645.73 158.54L639.96 157.366C633.94 156.144 629.31 151.374 628.25 145.336L625.06 126.776L619.54 139.627C618.93 141.06 619.07 142.705 619.94 143.997L636.99 169.724C637.23 170.076 637.37 170.475 637.39 170.922L637.72 175.785L648.46 186.546H673.74V197.588L668.36 192.184H662.44L668.08 197.823L661.95 203.978V197.823L656.31 192.184H650.88L645.24 197.823V202.686L638.69 196.108L644.4 190.54L634.36 180.484L630.75 180.883C630.18 180.954 629.59 180.813 629.12 180.484L608.03 166.434L623.18 186.945L647.31 219.579H637.14C631.36 219.579 626.12 216.219 623.67 210.98L614.82 191.926C613.97 192.302 613.12 192.678 612.28 193.007L626.49 228.859H621.58C614.42 228.859 608.26 223.737 606.99 216.665L603.16 195.614C602.32 195.755 601.49 195.896 600.63 195.99L603.82 221.129C604.43 225.969 602.65 230.786 599.03 234.051L594.49 238.139L589.96 234.051C586.34 230.786 584.56 225.969 585.17 221.129L588.36 195.99C587.52 195.896 586.67 195.755 585.82 195.614L581.99 216.665C580.7 223.737 574.57 228.859 567.4 228.859H562.494L576.71 193.007C575.86 192.678 575.02 192.302 574.17 191.926L565.31 210.98C562.87 216.219 557.631 219.579 551.851 219.579H541.678L565.81 186.945L580.96 166.458L559.863 180.484C559.393 180.813 558.805 180.93 558.241 180.883L554.623 180.484L544.591 190.54L550.3 196.108L543.745 202.686V197.823L538.107 192.184H532.68L527.041 197.823V203.978L520.909 197.823L526.547 192.184H520.627L515.247 197.588V186.546H540.527L551.264 175.785L551.616 170.922C551.64 170.499 551.78 170.1 552.015 169.747L569.07 144.021C569.94 142.729 570.08 141.084 569.47 139.651L563.927 126.799L560.732 145.36C559.698 151.398 555.046 156.191 549.032 157.389L543.252 158.54L552.203 122.03C551.24 121.701 550.23 121.419 549.243 121.137L541.513 150.411C540.057 155.885 535.64 160.067 530.095 161.172L522.013 162.793L537.049 118.647C536.016 118.482 534.982 118.318 533.948 118.106L520.368 155.838C518.606 160.725 514.424 164.343 509.326 165.377L498.519 167.562L521.778 114.77C520.791 114.418 519.805 114.042 518.841 113.642L496.616 161.735C494.619 166.035 490.719 169.136 486.067 170.053L471.899 172.919L507.541 108.074C506.624 107.557 505.731 106.994 504.862 106.43L482.636 145.242C480.334 149.26 476.316 151.962 471.735 152.573L457.591 154.476L494.806 98.841C494.008 98.16 493.232 97.431 492.481 96.703L471.524 126.87C468.939 130.582 464.828 132.908 460.317 133.213L446.408 134.13L483.999 87.352C483.341 86.53 482.707 85.684 482.096 84.815L461.233 109.86C458.414 113.243 454.232 115.193 449.838 115.193H436L502.63 45.65C506.225 41.914 511.182 39.776 516.374 39.776H531.246C535.217 39.776 538.436 42.995 538.436 46.989V55.4C538.436 62.166 540.691 68.416 544.497 73.42C549.924 80.586 558.523 85.214 568.2 85.214C570.36 85.214 572.46 84.979 574.48 84.556C576.1 84.204 577.39 83.006 577.84 81.432L583.12 62.307C583.19 61.978 583.22 61.602 583.15 61.25C582.79 58.924 579.64 57.491 576.14 58.031C573.32 58.454 571.14 60.028 570.55 61.814C570.55 61.814 568.98 58.759 568.95 56.504C568.91 53.567 570.18 51.946 573 50.513L577.91 48.211C581.01 45.368 586.06 43.512 591.77 43.512C600.55 43.512 607.81 47.882 608.73 53.544L608.82 54.225L612.37 81.056C612.63 82.982 614.11 84.509 616.01 84.815C617.56 85.073 619.19 85.214 620.81 85.214C630.49 85.214 639.09 80.586 644.51 73.42C648.32 68.416 650.57 62.166 650.57 55.4V46.989C650.57 43.018 653.79 39.776 657.76 39.776H672.64C677.83 39.776 682.79 41.891 686.38 45.65L753.01 115.193H739.17C734.78 115.193 730.6 113.243 727.78 109.86L706.91 84.815C706.3 85.661 705.67 86.506 705.01 87.352L742.6 134.13L728.69 133.213C724.18 132.908 720.07 130.582 717.49 126.87L696.53 96.703V96.679Z" fill="#B9A87B"/>
<path d="M585.71 27.183L594.52 20.746L603.3 27.183L599.94 16.799L608.75 10.385H597.88L594.52 0L591.13 10.385H580.26L589.07 16.799L585.71 27.183Z" fill="#B9A87B"/>
<path d="M629.71 27.4409L635.35 36.769L636.27 25.8909L646.86 23.377L636.83 19.1709L637.75 8.29395L630.63 16.5639L620.57 12.3349L626.23 21.6619L619.12 29.9319L629.71 27.4409Z" fill="#B9A87B"/>
<path d="M552.744 25.9139L553.566 36.7919L559.299 27.5119L569.87 30.1199L562.823 21.7789L568.56 12.4989L558.476 16.6339L551.452 8.29395L552.25 19.1709L542.171 23.3059L552.744 25.9139Z" fill="#B9A87B"/>
<path d="M25.4966 51.8829L30.3569 51.6845V78.7707C30.3569 84.7253 34.0282 85.2207 38.7901 85.2207V89.9832C38.6901 91.2738 37.798 92.166 36.6076 92.166C30.6552 92.166 26.687 89.5863 25.3966 84.5269C21.9252 87.7019 17.0634 90.1816 11.9047 90.1816C5.25868 90.1816 0 86.0144 0 77.9784C0 68.9487 7.63957 64.1861 14.1871 61.8049L24.9998 57.8361C25.0997 55.9516 25.1982 54.0658 25.4966 51.8829ZM4.76184 76.9862C4.76184 81.0535 8.83001 83.2363 13.7903 83.2363C17.7585 83.2363 21.6268 81.8472 24.9013 79.8628V63.9877L10.119 67.758C8.13486 69.544 4.76184 73.1159 4.76184 76.9862ZM3.37296 41.6641L8.0364 37H8.63158L13.2935 41.6641L17.9569 37H18.5521L23.214 41.6641L18.5521 46.3266H17.9569L13.2935 41.6641L8.63158 46.3266H8.0364L3.37296 41.6641ZM48.0375 63.8892L53.4931 63.2939C54.0883 67.1627 54.2867 70.5362 54.2867 74.4065V80.7565C54.2867 88.7926 47.7391 92.166 36.728 92.166V86.4113L38.9106 85.2207C42.0852 85.2207 45.9535 84.6254 48.6327 83.7331V73.5128C48.6327 70.3377 48.4343 67.1627 48.0375 63.8892ZM46.3502 50.097L51.1121 45.3345H51.7073L56.4692 50.097L51.7073 54.761H51.1121L46.3502 50.097ZM64.0338 39.1828L69.4908 38.5875C70.086 42.8547 70.2845 47.0219 70.2845 51.1877V79.2675C70.2845 84.7253 73.756 85.2207 78.0225 85.2207V91.1739L75.8399 92.166C67.2083 92.166 64.629 87.305 64.629 80.1612V51.586C64.629 47.3188 64.4306 43.5485 64.0338 39.1828ZM75.9444 92.166V86.8082L78.1269 85.2207C81.3014 85.2207 85.2696 84.4269 87.9489 82.641C87.849 81.8472 87.849 81.1519 87.849 80.2597V76.191C87.849 73.8112 87.9489 71.033 88.1473 68.3533L93.0077 67.9565L93.5044 68.4533V78.9706C93.5044 84.8238 96.7774 85.2207 101.639 85.2207V91.1739L99.4568 92.166C94.2981 92.166 90.5282 90.0832 88.841 86.0144C85.8648 89.5863 81.9966 92.166 75.9444 92.166ZM90.1314 103.774L94.7933 99.1114H95.3886L100.052 103.774L95.3886 108.438H94.7933L90.1314 103.774ZM80.1109 103.774L84.7744 99.1114H85.3696L90.0315 103.774L85.3696 108.438H84.7744L80.1109 103.774ZM99.4289 92.166V86.8082L101.611 85.2207C104.786 85.2207 108.754 84.4269 111.532 82.641C111.333 81.8472 111.333 81.0534 111.333 80.2597V77.8784C111.333 75.894 111.432 72.9175 111.63 70.8346L116.294 70.4363L116.789 70.8346V79.2675C116.789 82.9379 119.17 85.2207 122.94 85.2207H123.04C133.059 70.4362 141.095 61.3095 152.701 61.3095C161.828 61.3095 167.582 66.8658 167.582 77.78C167.582 80.4582 167.285 82.641 166.492 84.5269C168.476 85.0223 170.46 85.2207 172.741 85.2207V91.1739C172.444 91.4708 170.955 92.0676 170.558 92.166C167.087 92.166 164.309 90.9754 162.325 89.3879C159.249 91.2738 154.587 92.166 147.841 92.166H123.337C118.476 92.166 114.408 89.8847 112.424 85.816C109.548 89.5863 105.58 92.166 99.4289 92.166ZM128.198 85.2207H145.659C153.793 85.2207 157.96 84.9238 162.92 83.4347V77.8784C162.92 72.1237 159.844 68.2549 152.9 68.2549H143.773C136.928 74.7034 132.463 79.6644 128.198 85.2207ZM180.895 39.1828L186.352 38.5875C186.847 43.0531 187.146 47.7157 187.146 52.1813V80.7565C187.146 88.2972 182.78 92.166 170.577 92.166V86.8082L172.76 85.2207C177.323 85.2207 179.011 84.7253 181.49 83.7331V52.0814C181.49 47.6172 181.392 43.6484 180.895 39.1828ZM204.118 92.166H199.059V52.0814C199.059 47.7157 198.959 44.4422 198.464 39.1828L203.821 38.5875C204.614 42.9532 204.614 47.7157 204.614 52.1813V91.6707L204.118 92.166ZM251.963 51.8829L256.824 51.6845V78.7707C256.824 84.7253 260.494 85.2207 265.256 85.2207V89.9832C265.158 91.2738 264.264 92.166 263.074 92.166C257.121 92.166 253.153 89.5863 251.864 84.5269C248.391 87.7019 243.531 90.1816 238.372 90.1816C231.725 90.1816 226.468 86.0144 226.468 77.9784C226.468 68.9487 234.106 64.1861 240.653 61.8049L251.467 57.8361C251.566 55.9516 251.666 54.0658 251.963 51.8829ZM231.229 76.9862C231.229 81.0535 235.296 83.2363 240.256 83.2363C244.225 83.2363 248.094 81.8472 251.367 79.8628V63.9877L236.587 67.758C234.602 69.544 231.229 73.1159 231.229 76.9862ZM229.841 41.6641L234.502 37H235.098L239.761 41.6641L244.423 37H245.018L249.682 41.6641L245.018 46.3266H244.423L239.761 41.6641L235.098 46.3266H234.502L229.841 41.6641ZM274.505 63.8892L279.961 63.2939C280.556 67.1627 280.754 70.5362 280.754 74.4065V80.7565C280.754 88.7926 274.207 92.166 263.196 92.166V86.4113L265.378 85.2207C268.553 85.2207 272.421 84.6254 275.1 83.7331V73.5128C275.1 70.3377 274.902 67.1627 274.505 63.8892ZM263.294 103.774L267.957 99.1114H268.553L273.215 103.774L268.553 108.438H267.957L263.294 103.774ZM273.315 103.774L277.977 99.1114H278.572L283.235 103.774L278.572 108.438H277.977L273.315 103.774ZM286.617 103.18L287.112 102.683H288.898C294.057 102.683 295.842 101.394 297.331 98.7145V78.3753C297.331 74.7034 297.133 71.8268 296.736 68.0564L301.993 67.4596L302.191 67.3612L303.183 79.5659C303.58 84.4269 306.061 85.2207 310.723 85.2207V91.1739L308.541 92.166C305.863 92.166 304.176 91.3723 302.985 89.8847V91.7692C302.985 100.996 299.514 109.332 291.477 109.529C288.998 109.529 286.914 108.835 286.12 108.438L286.617 103.18ZM319.844 63.8892L325.301 63.2939C325.896 67.1627 326.095 70.5362 326.095 74.4065V80.7565C326.095 88.7926 319.547 92.166 308.535 92.166V86.4113L310.717 85.2207C313.892 85.2207 317.761 84.6254 320.439 83.7331V73.5128C320.439 70.3377 320.241 67.1627 319.844 63.8892ZM308.635 103.774L313.297 99.1114H313.892L318.555 103.774L313.892 108.438H313.297L308.635 103.774ZM318.654 103.774L323.317 99.1114H323.912L328.574 103.774L323.912 108.438H323.317L318.654 103.774ZM339.512 63.6908L341.694 58.1345C343.58 58.6298 345.464 59.2252 346.953 60.0189L348.937 61.0111C356.278 64.7814 359.651 71.1315 359.651 79.2675V82.344C359.651 83.4347 359.551 84.3284 359.453 85.2207H364.215V90.5786C364.215 91.5707 363.024 92.166 362.032 92.166H342.588C339.413 92.166 336.337 91.8691 332.964 91.1739L333.559 85.2207H354.691C354.691 78.0769 354.393 71.1315 345.861 66.6674L344.374 65.8736C342.885 65.0784 341.297 64.3846 339.512 63.6908ZM387.608 62.2017C396.238 62.2017 401 68.8502 401 78.0769C401 86.9082 396.635 92.3645 388.699 92.3645C382.449 92.3645 377.291 88.8925 374.413 85.3206C371.834 89.7848 368.362 92.166 362.013 92.166V86.4113L364.196 85.2207C368.164 85.2207 370.445 83.2363 371.635 80.3596L373.322 75.894C376.1 69.0486 379.076 62.2017 387.608 62.2017ZM386.814 85.4191C390.683 85.4191 394.452 84.3284 396.04 82.5425V77.78C396.04 72.719 392.171 69.2471 386.616 69.2471H381.259L376.1 81.8472C379.076 84.0301 382.349 85.4191 386.814 85.4191ZM53.349 172.681L52.8538 173.078C48.6871 172.482 46.603 172.185 42.1395 172.185H33.7064C32.1191 173.871 30.5317 176.551 30.5317 178.536C30.5317 186.075 54.341 181.611 54.341 198.379C54.341 210.781 41.6428 216.139 26.5636 216.139C12.8732 216.139 3.64783 211.078 3.84624 196.494C3.84624 193.319 4.34154 188.953 5.23512 184.587L10.0955 185.182C9.50023 189.251 9.10343 192.029 9.10343 194.708C9.10343 205.523 16.643 209.094 27.3572 209.094C37.3777 209.094 46.8014 206.019 49.6791 202.744V199.073C49.6791 188.358 25.7699 193.617 25.7699 179.626C25.7699 172.086 31.7223 165.14 42.6349 165.14C47.3967 165.14 51.7617 166.431 53.8458 167.323L53.349 172.681ZM61.2855 206.712L61.7822 206.316C63.4679 206.812 65.3536 207.209 68.2298 207.209C74.9758 207.209 79.6392 204.728 83.409 201.058V194.112C80.7297 195.898 77.6551 197.287 73.3885 197.287C65.2537 197.287 60.4918 192.228 60.4918 183.495C60.4918 173.871 66.4441 167.72 74.0836 167.72C80.3328 167.72 88.2693 171.689 88.2693 187.067V193.517C88.2693 208.003 78.6471 213.956 69.1234 213.956C64.46 213.956 62.179 212.467 60.7901 211.873L61.2855 206.712ZM83.409 189.847V189.45C83.409 181.412 80.5313 174.665 73.29 174.665H67.4362C65.8489 177.84 65.1552 180.618 65.1552 183C65.1552 186.87 66.8409 190.54 74.3805 190.54C76.663 190.54 80.1345 190.143 83.409 189.847ZM97.3227 146.487L102.778 145.892C103.374 150.159 103.572 154.326 103.572 158.492V186.572C103.572 192.029 107.045 192.525 111.31 192.525V198.478L109.127 199.47C100.497 199.47 97.918 194.609 97.918 187.465V158.89C97.918 154.623 97.7195 150.853 97.3227 146.487ZM114.59 170.3V162.56L124.312 154.723C127.685 151.945 131.455 148.77 135.225 146.587L138.3 151.548C134.431 153.929 131.058 157.004 128.181 159.287L119.252 166.132C133.241 170.498 142.765 175.261 142.765 186.87C142.765 188.953 142.466 190.64 141.971 192.029C143.558 192.426 145.244 192.525 147.13 192.525V198.478C146.831 198.775 145.344 199.372 144.947 199.47C141.773 199.47 139.292 198.578 137.308 197.189C134.133 198.875 129.57 199.47 123.916 199.47H109.233V194.112L111.416 192.525H122.13C128.479 192.525 133.736 192.029 137.704 190.937V186.175C137.704 180.618 128.578 175.36 115.086 170.895L114.59 170.3ZM179.585 179.428L184.149 180.618L181.173 190.342C181.173 190.54 181.073 190.64 181.073 190.837C182.66 191.831 184.446 192.525 187.223 192.525C188.315 192.525 189.903 192.426 192.382 191.533C192.085 190.342 191.985 189.053 191.985 187.564V183.495C191.985 181.115 192.085 178.337 192.284 175.657L197.144 175.261L197.641 175.757V186.275C197.641 192.128 200.914 192.525 205.775 192.525V198.478L203.593 199.47C199.326 199.47 196.152 198.081 194.168 195.403C192.68 198.081 190.2 199.47 186.927 199.47C183.157 199.47 180.577 197.586 178.792 195.403C176.808 197.983 173.93 199.47 170.062 199.47C164.109 199.47 160.438 196.593 157.959 193.417C154.189 198.578 150.121 199.47 144.962 199.47V194.311L147.144 192.525C150.617 192.525 152.105 192.326 153.295 191.533L159.247 180.52L159.943 180.321L163.612 182.206C162.422 185.282 161.53 187.664 160.24 189.945C162.324 191.136 166.192 192.525 169.565 192.525C172.144 192.525 174.128 192.128 175.022 191.831L178.89 179.725L179.585 179.428ZM169.763 166.331L174.427 161.668H175.022L179.684 166.331L184.347 161.668H184.942L189.604 166.331L184.942 170.995H184.347L179.684 166.331L175.022 170.995H174.427L169.763 166.331ZM174.723 157.104L179.485 152.342H180.081L184.842 157.104L180.081 161.867H179.485L174.723 157.104ZM213.796 146.487L219.251 145.892C219.748 150.357 220.045 155.02 220.045 159.485V188.061C220.045 195.601 215.68 199.47 203.478 199.47V194.112L205.661 192.525C210.224 192.525 211.91 192.029 214.391 191.037V159.385C214.391 154.921 214.291 150.952 213.796 146.487ZM237.019 199.47H231.96V159.385C231.96 155.02 231.86 151.746 231.365 146.487L236.722 145.892C237.515 150.257 237.515 155.02 237.515 159.485V198.975L237.019 199.47ZM292.702 189.747L288.236 176.551H282.979C278.218 176.551 273.356 179.528 273.356 185.182V190.143C274.943 191.929 278.911 193.12 282.384 193.12C286.352 193.12 290.022 191.633 292.702 189.747ZM285.062 169.506C289.725 169.506 292.205 171.093 293.694 175.559L297.463 186.473C299.249 191.632 301.133 192.525 305.4 192.525V198.379L303.217 199.47C298.951 199.47 296.074 197.387 293.792 192.625C291.808 196.692 288.038 200.065 281.491 200.065C277.027 200.065 273.654 198.379 271.472 195.601H263.435V207.508C263.435 211.773 263.634 216.039 264.03 220.405L258.773 221C258.078 216.734 257.98 211.773 257.98 207.408V198.975C257.98 191.632 262.146 188.654 268.694 188.654H268.792C268.694 187.862 268.594 186.968 268.594 186.075C268.594 175.36 276.233 169.506 285.062 169.506ZM337.848 179.428L342.411 180.618L339.435 190.342C339.435 190.54 339.337 190.64 339.337 190.837C340.924 191.831 342.71 192.525 345.488 192.525C346.578 192.525 348.165 192.426 350.646 191.533C350.348 190.342 350.249 189.053 350.249 187.564V183.495C350.249 181.115 350.348 178.337 350.546 175.657L355.408 175.261L355.903 175.757V186.275C355.903 192.128 359.178 192.525 364.038 192.525V198.478L361.856 199.47C357.591 199.47 354.416 198.081 352.432 195.403C350.943 198.081 348.464 199.47 345.189 199.47C341.419 199.47 338.84 197.586 337.054 195.403C335.07 197.983 332.194 199.47 328.324 199.47C322.372 199.47 318.702 196.593 316.221 193.417C312.451 198.578 308.385 199.47 303.226 199.47V194.311L305.409 192.525C308.88 192.525 310.369 192.326 311.559 191.533L317.512 180.52L318.205 180.321L321.877 182.206C320.686 185.282 319.793 187.664 318.504 189.945C320.586 191.136 324.456 192.525 327.829 192.525C330.408 192.525 332.392 192.128 333.285 191.831L337.154 179.725L337.848 179.428ZM379.995 157.698C386.246 157.698 394.182 161.668 394.182 178.237V187.465C394.182 197.486 386.642 199.47 375.928 199.47H361.741V194.212L363.924 192.525H376.622C381.881 192.525 387.039 191.831 389.32 191.037V183.198C386.146 184.886 382.376 185.976 378.706 185.976C371.265 185.976 366.603 181.314 366.603 173.078C366.603 164.248 371.96 157.698 379.995 157.698ZM379.5 164.743H373.447C371.662 167.521 371.265 170.2 371.265 172.284C371.265 176.551 372.952 179.925 380.59 179.925C382.674 179.925 386.542 179.725 389.32 179.329C389.222 170.4 386.246 164.743 379.5 164.743ZM369.976 144.602L374.638 139.938H375.233L379.896 144.602L384.558 139.938H385.154L389.817 144.602L385.154 149.265H384.558L379.896 144.602L375.233 149.265H374.638L369.976 144.602Z" fill="#092724"/>
</svg>
